HIERARCHY
ROOT SpineBase
{
  OFFSET 0.000000 0.000000 0.000000
  CHANNELS 6 Xposition Yposition Zposition Zrotation Xrotation Yrotation
  JOINT SpineMid
  {
    OFFSET -0.000000 33.053106 -0.000000
    CHANNELS 3 Zrotation Xrotation Yrotation
    JOINT SpineShoulder
    {
      OFFSET -0.089630 24.729976 -0.874083
      CHANNELS 3 Zrotation Xrotation Yrotation
      JOINT Neck
      {
        OFFSET -0.036865 8.235093 -0.619737
        CHANNELS 3 Zrotation Xrotation Yrotation
        JOINT Head
        {
          OFFSET 4.619573 11.187032 3.932721
          CHANNELS 3 Zrotation Xrotation Yrotation
          End Site
          {
            OFFSET 0 0 0
          }
        }
      }
      JOINT ShoulderLeft
      {
        OFFSET -1.343274 -4.609292 -13.383839
        CHANNELS 3 Zrotation Xrotation Yrotation
        JOINT ElbowLeft
        {
          OFFSET 5.606915 -26.223724 -3.208707
          CHANNELS 3 Zrotation Xrotation Yrotation
          JOINT WristLeft
          {
            OFFSET 7.650977 -21.437417 7.514430
            CHANNELS 3 Zrotation Xrotation Yrotation
            JOINT HandLeft
            {
              OFFSET -1.765104 -9.672001 3.560535
              CHANNELS 3 Zrotation Xrotation Yrotation
              JOINT HandTipLeft
              {
                OFFSET 1.473770 -5.548897 1.402218
                CHANNELS 3 Zrotation Xrotation Yrotation
                End Site
                {
                  OFFSET 0 0 0
                }
              }
              JOINT ThumbLeft
              {
                OFFSET -4.759596 -2.977945 -5.448296
                CHANNELS 3 Zrotation Xrotation Yrotation
                End Site
                {
                  OFFSET 0 0 0
                }
              }
            }
          }
        }
      }
      JOINT ShoulderRight
      {
        OFFSET 6.153512 -6.116505 -15.574524
        CHANNELS 3 Zrotation Xrotation Yrotation
        JOINT ElbowRight
        {
          OFFSET 0.246257 -32.004513 1.204009
          CHANNELS 3 Zrotation Xrotation Yrotation
          JOINT WristRight
          {
            OFFSET 4.598466 -27.739511 7.735071
            CHANNELS 3 Zrotation Xrotation Yrotation
            JOINT HandRight
            {
              OFFSET -1.675719 -6.232058 0.296704
              CHANNELS 3 Zrotation Xrotation Yrotation
              JOINT HandTipRight
              {
                OFFSET 2.517834 -5.494655 1.114700
                CHANNELS 3 Zrotation Xrotation Yrotation
                End Site
                {
                  OFFSET 0 0 0
                }
              }
              JOINT ThumbRight
              {
                OFFSET 2.754116 6.271209 1.059723
                CHANNELS 3 Zrotation Xrotation Yrotation
                End Site
                {
                  OFFSET 0 0 0
                }
              }
            }
          }
        }
      }
    }
  }
  JOINT HipLeft
  {
    OFFSET -5.939106 1.599931 -8.114466
    CHANNELS 3 Zrotation Xrotation Yrotation
    JOINT KneeLeft
    {
      OFFSET -0.424103 -34.025023 -0.273488
      CHANNELS 3 Zrotation Xrotation Yrotation
      JOINT AnkleLeft
      {
        OFFSET -9.803600 -32.346112 -2.977215
        CHANNELS 3 Zrotation Xrotation Yrotation
        JOINT FootLeft
        {
          OFFSET 3.649380 -7.653822 -2.217918
          CHANNELS 3 Zrotation Xrotation Yrotation
          End Site
          {
            OFFSET 0 0 0
          }
        }
      }
    }
  }
  JOINT HipRight
  {
    OFFSET 5.662605 0.643414 1.227218
    CHANNELS 3 Zrotation Xrotation Yrotation
    JOINT KneeRight
    {
      OFFSET -20.275719 -31.566774 10.469459
      CHANNELS 3 Zrotation Xrotation Yrotation
      JOINT AnkleRight
      {
        OFFSET 26.543877 2.786951 -16.596932
        CHANNELS 3 Zrotation Xrotation Yrotation
        JOINT FootRight
        {
          OFFSET -7.450660 -10.073585 -4.812570
          CHANNELS 3 Zrotation Xrotation Yrotation
          End Site
          {
            OFFSET 0 0 0
          }
        }
      }
    }
  }
}
MOTION
Frames: 6
Frame Time: 0.033333
10.062002 77.090639 339.394965 -5.729181 3.543868 10.120092 -0.528401 -0.367474 -10.188919 -0.605385 0.149596 -0.297628 26.139192 -4.569233 -4.549272 0.000000 0.000000 0.000000 -25.214099 -27.882631 -10.554639 37.643039 22.616114 -6.475313 -29.333204 -3.147989 -8.142447 11.340863 -14.653368 -4.433787 0.000000 0.000000 0.000000 0.000000 0.000000 0.000000 30.088137 -39.615734 10.155969 -30.448703 2.392551 1.068054 25.617225 -12.603214 17.141419 -50.364947 31.464731 2.309997 0.000000 0.000000 0.000000 0.000000 0.000000 0.000000 12.861119 1.623095 -9.695579 -5.701316 -9.570641 0.455545 -3.723444 -1.828038 -1.768179 0.000000 0.000000 0.000000 50.753644 -25.194804 37.009965 -12.085782 39.701234 -12.883309 -19.797737 -6.221965 -20.084410 0.000000 0.000000 0.000000
10.331520 76.777894 339.000766 -6.008340 3.964143 14.332802 -0.731245 -0.060323 -14.385296 -0.379205 0.217786 -0.291966 27.684187 -5.670300 -4.342588 0.000000 0.000000 0.000000 -28.080319 -30.093497 -12.551130 40.371643 24.645113 -7.678465 -31.701496 -7.657242 -9.234699 12.946265 -9.982093 -4.765421 0.000000 0.000000 0.000000 0.000000 0.000000 0.000000 30.093525 -39.275192 10.151861 -31.188223 0.601644 0.452778 26.005035 -11.089198 16.707888 -61.361988 33.178077 11.677431 0.000000 0.000000 0.000000 0.000000 0.000000 0.000000 13.835948 0.865118 -13.709952 -6.518507 -10.367960 0.379933 -3.845505 -2.836639 -2.218375 0.000000 0.000000 0.000000 49.305121 -29.620249 35.009958 -10.656364 40.368512 -13.804474 -20.099255 -6.106033 -19.951081 0.000000 0.000000 0.000000
10.560395 76.623924 338.642254 -6.384437 4.356414 15.158129 -0.820382 0.193847 -15.187261 -0.213039 0.271465 -0.291373 29.518241 -6.818519 -4.101109 0.000000 0.000000 0.000000 -26.972181 -31.182572 -12.992576 39.349280 24.744708 -7.551399 -31.693442 -7.298105 -8.856690 12.876972 -9.940281 -4.765791 0.000000 0.000000 0.000000 0.000000 0.000000 0.000000 29.042137 -37.301775 9.350740 -30.643520 -2.995031 -1.114969 24.460065 -8.488927 16.133729 -59.068096 29.296445 6.664248 0.000000 0.000000 0.000000 0.000000 0.000000 0.000000 14.283146 0.230213 -14.364581 -6.832622 -10.439717 0.359821 -4.050899 -3.850756 -2.683291 0.000000 0.000000 0.000000 49.189707 -30.571214 34.580616 -10.497630 40.241483 -13.703064 -20.396034 -6.020425 -19.806507 0.000000 0.000000 0.000000
10.701835 76.724386 338.357960 -6.840826 4.680408 11.884933 -0.691695 0.259881 -11.877115 -0.024481 0.276762 -0.282784 30.133349 -7.462395 -3.852579 0.000000 0.000000 0.000000 -26.939731 -32.516423 -13.827062 39.168039 25.806939 -7.681226 -31.683473 -7.301804 -8.855949 12.839113 -9.920915 -4.767398 0.000000 0.000000 0.000000 0.000000 0.000000 0.000000 26.589717 -35.319037 8.058493 -29.182747 -5.088864 -2.492758 23.518937 -9.504821 16.669802 -53.450023 31.618976 5.466178 0.000000 0.000000 0.000000 0.000000 0.000000 0.000000 14.276059 -0.205447 -10.994974 -6.695721 -9.537034 0.406474 -4.393477 -4.633317 -3.005081 0.000000 0.000000 0.000000 51.216834 -27.586420 36.859606 -11.603342 39.699095 -12.960854 -20.567079 -5.979864 -19.719034 0.000000 0.000000 0.000000
10.877973 76.742509 338.151785 -7.124132 4.920039 12.199615 -0.580837 0.272744 -12.165459 0.201833 0.234819 -0.265674 30.206848 -7.483849 -3.912579 0.000000 0.000000 0.000000 -24.970185 -33.040778 -13.579334 37.057631 26.188786 -6.961225 -31.678003 -7.303832 -8.855217 12.777202 -9.921182 -4.781814 0.000000 0.000000 0.000000 0.000000 0.000000 0.000000 20.639602 -33.575135 5.567287 -24.119404 -7.913262 -4.559649 24.021907 -9.694659 16.857012 -55.038929 32.532883 6.843308 0.000000 0.000000 0.000000 0.000000 0.000000 0.000000 14.072797 -0.378348 -11.240153 -6.147410 -9.738671 0.465104 -4.831391 -5.062364 -3.215602 0.000000 0.000000 0.000000 51.549860 -28.213749 37.245944 -11.325685 39.970012 -13.279092 -20.665367 -5.933241 -19.680294 0.000000 0.000000 0.000000
11.013097 76.717699 338.016922 -7.288522 5.062020 12.360829 -0.584896 0.262199 -12.317469 0.295511 0.159162 -0.265917 30.597125 -7.864191 -3.743425 0.000000 0.000000 0.000000 -23.605803 -33.414794 -13.420255 35.752440 26.554923 -6.524013 -31.702532 -7.302721 -8.864371 12.734565 -9.917191 -4.790212 0.000000 0.000000 0.000000 0.000000 0.000000 0.000000 15.783785 -32.103175 3.625844 -21.724663 -6.374364 -5.238745 26.282559 -12.155420 16.993328 -54.526134 33.060481 7.068721 0.000000 0.000000 0.000000 0.000000 0.000000 0.000000 13.735690 -0.257367 -11.389388 -5.428502 -10.145531 0.554893 -4.951535 -4.903324 -3.263817 0.000000 0.000000 0.000000 51.829031 -28.653277 37.674470 -11.057555 40.265993 -13.624934 -20.824827 -5.728075 -19.677002 0.000000 0.000000 0.000000
